<?xml version="1.0" encoding="UTF-8"?>
<svg width="600" height="400" viewBox="0 0 600 400" fill="none" xmlns="http://www.w3.org/2000/svg">
    <!-- Background Grid -->
    <pattern id="grid" x="0" y="0" width="40" height="40" patternUnits="userSpaceOnUse">
        <path d="M 40 0 L 0 0 0 40" fill="none" stroke="#F45B4E" stroke-width="0.5" stroke-opacity="0.1"/>
    </pattern>
    <rect width="600" height="400" fill="url(#grid)"/>

    <!-- Central Circle -->
    <circle cx="300" cy="200" r="120" fill="#232F3E" fill-opacity="0.1" stroke="#232F3E" stroke-width="2"/>
    
    <!-- Orbital Rings -->
    <g transform="rotate(30 300 200)">
        <circle cx="300" cy="200" r="160" stroke="#F45B4E" stroke-width="2" stroke-dasharray="8 8"/>
    </g>
    <g transform="rotate(-30 300 200)">
        <circle cx="300" cy="200" r="180" stroke="#232F3E" stroke-width="2" stroke-dasharray="8 8"/>
    </g>

    <!-- Floating Elements -->
    <g id="floating-elements">
        <!-- Data Points -->
        <circle cx="200" cy="150" r="10" fill="#F45B4E"/>
        <circle cx="400" cy="250" r="10" fill="#F45B4E"/>
        <circle cx="300" cy="100" r="10" fill="#232F3E"/>
        <circle cx="300" cy="300" r="10" fill="#232F3E"/>
        
        <!-- Connection Lines -->
        <line x1="200" y1="150" x2="300" y2="200" stroke="#F45B4E" stroke-width="2"/>
        <line x1="400" y1="250" x2="300" y2="200" stroke="#F45B4E" stroke-width="2"/>
        <line x1="300" y1="100" x2="300" y2="200" stroke="#232F3E" stroke-width="2"/>
        <line x1="300" y1="300" x2="300" y2="200" stroke="#232F3E" stroke-width="2"/>
    </g>

    <!-- Central Icon -->
    <g transform="translate(250 150)">
        <rect x="0" y="0" width="100" height="100" rx="20" fill="#232F3E"/>
        <path d="M20 50C20 50 40 70 50 70C60 70 80 50 80 50" stroke="white" stroke-width="4" stroke-linecap="round"/>
        <circle cx="30" cy="30" r="5" fill="#F45B4E"/>
        <circle cx="70" cy="30" r="5" fill="#F45B4E"/>
    </g>

    <!-- Decorative Elements -->
    <circle cx="150" cy="350" r="5" fill="#F45B4E"/>
    <circle cx="450" cy="50" r="5" fill="#F45B4E"/>
    <circle cx="50" cy="200" r="5" fill="#232F3E"/>
    <circle cx="550" cy="200" r="5" fill="#232F3E"/>

    <!-- Pulse Animation -->
    <circle cx="300" cy="200" r="40" fill="none" stroke="#F45B4E" stroke-width="2">
        <animate attributeName="r" values="40;60;40" dur="2s" repeatCount="indefinite"/>
        <animate attributeName="stroke-opacity" values="1;0;1" dur="2s" repeatCount="indefinite"/>
    </circle>
</svg> 